<?xml version="1.0" encoding="UTF-8"?>
<svg id="_レイヤー_2" data-name="レイヤー 2" xmlns="http://www.w3.org/2000/svg" viewBox="0 0 216.64 221.01">
  <defs>
    <style>
      .cls-1 {
        fill: #b81647;
      }

      .cls-2 {
        fill: none;
        stroke: #fff;
        stroke-miterlimit: 10;
        stroke-width: 10px;
      }

      .cls-3 {
        fill: #fff;
      }
    </style>
  </defs>
  <g id="_レイヤー_2-2" data-name="レイヤー 2">
    <g>
      <path class="cls-3" d="M125.01,183.45c4.52-.81,6.97.78,7.48,3.65.39,2.15-.44,3.81-2.42,4.99v.05c2.53.12,4.02,1.39,4.45,3.78.57,3.16-1.46,5.61-5.58,6.35l-7.04,1.26-3.39-18.92,6.51-1.17ZM123.12,192.07l3.14-.56c2.63-.47,3.55-1.62,3.23-3.38-.32-1.78-1.54-2.49-4.04-2.05l-3.3.59.97,5.39ZM124.6,200.31l3.38-.6c2.6-.47,3.58-1.6,3.24-3.49-.33-1.86-1.63-2.67-4.47-2.16l-3.16.57,1.02,5.69Z"/>
      <path class="cls-3" d="M141.57,192.71l1.08,5.4-2.94,1.71-3.62-20.14,3.76-2.19,15.71,13.11-2.94,1.71-4.16-3.61-6.89,4ZM145,185.71c-2.04-1.78-4.02-3.53-5.99-5.36l-.05.03c.61,2.61,1.2,5.18,1.72,7.84l.32,1.57,5.21-3.03-1.2-1.05Z"/>
      <path class="cls-3" d="M153.86,171.05l10.57,12.56-2.46,2.07-10.57-12.56-4.83,4.07-1.81-2.15,12.13-10.21,1.81,2.15-4.83,4.07Z"/>
      <path class="cls-3" d="M170.37,170.87l2.83,4.72-2.19,2.6-10.18-17.74,2.8-3.32,19.2,7.06-2.19,2.6-5.13-2-5.14,6.09ZM171.25,163.13c-2.52-1-4.98-1.97-7.44-3.03l-.04.04c1.46,2.25,2.87,4.47,4.25,6.81l.83,1.37,3.88-4.6-1.49-.58Z"/>
      <path class="cls-3" d="M173.74,147.88l14.14,8.34-1.63,2.77-14.14-8.34-3.21,5.44-2.42-1.43,8.05-13.65,2.42,1.43-3.21,5.44Z"/>
      <path class="cls-3" d="M189.13,142.73l4.23,3.52-1.21,3.18-15.47-13.39,1.55-4.06,20.46.32-1.21,3.18-5.5-.19-2.84,7.44ZM187.4,135.13c-2.7-.11-5.35-.22-8.02-.41l-.02.05c2.12,1.65,4.18,3.27,6.26,5.02l1.23,1.02,2.15-5.63-1.6-.06Z"/>
      <path class="cls-3" d="M188.88,113.15l-.57,3.22c-2.39-.42-3.86.72-4.29,3.17-.36,2.05.4,3.5,1.94,3.77,1.73.3,2.49-.91,3.77-3.81,1.5-3.41,2.96-6.22,6.95-5.52,3.51.62,5.3,3.84,4.55,8.1-.81,4.57-3.61,6.96-7.95,6.2l.58-3.27c2.71.48,4.28-.78,4.74-3.42.42-2.37-.43-3.94-2.21-4.26-1.91-.34-2.58.97-3.81,3.74-1.54,3.43-2.94,6.26-6.9,5.56-3.22-.57-4.96-3.59-4.26-7.61.81-4.6,3.38-6.59,7.45-5.87Z"/>
    </g>
    <g>
      <path class="cls-3" d="M36.68,133.23l-5.78,2.73,3.95,8.36-2.72,1.28-3.95-8.36-7.54,3.57-1.5-3.16,18.78-8.88,5.75,12.16-2.74,1.3-4.25-8.99Z"/>
      <path class="cls-3" d="M30.57,160.55l17.42-9.9,1.67,2.94-17.42,9.9-1.67-2.94Z"/>
      <path class="cls-3" d="M48.77,172.08l-4.68,2.33-2.3-2.27,17.53-8.33,2.94,2.9-8.08,17.65-2.3-2.27,2.27-4.71-5.38-5.31ZM56.03,173.48c1.12-2.31,2.23-4.56,3.41-6.82l-.04-.04c-2.24,1.21-4.44,2.39-6.75,3.53l-1.35.68,4.07,4.01.66-1.36Z"/>
      <path class="cls-3" d="M77.44,182.09l-6.3,14.62-2.86-1.23,6.3-14.62-5.63-2.42,1.08-2.5,14.12,6.08-1.08,2.5-5.63-2.42Z"/>
    </g>
    <ellipse class="cls-2" cx="108.32" cy="110.5" rx="103.32" ry="105.5"/>
    <g>
      <path class="cls-3" d="M98.59,171.58c1.71-.06,3.41-.21,5.11-.43,4.79-.62,9.52-1.78,14.04-3.48,5.74-2.16,11.15-5.21,15.88-9.12,4.4-3.63,8.18-7.96,11.23-12.77,15.54-24.5,7.3-52.54,6.05-55.54-.28-.68-1.11-2.25-1.95-4.9-1.19-3.77-1.04-5.42-2.57-7.33-.43-.54-1.55-1.91-3.29-2.29-2.3-.5-4.37,1.01-5.04,1.49-13.36,9.57-31.11,11.8-44.68,32.52-17.31,26.41-14.19,60.88-9.95,62.21.77.24,2.71-.34,6.14-.59"/>
      <path class="cls-1" d="M139.26,98.77c-.38-1.07-1.07-2.33-2.39-3.5-2.11-1.88-4.93-2.74-7.02-3.17"/>
      <path class="cls-1" d="M113.28,115.32c-.44-1.05-1.2-2.26-2.58-3.36-2.21-1.75-5.08-2.46-7.19-2.77"/>
      <path class="cls-1" d="M100.79,144.56c-.57-.98-1.46-2.11-2.85-3.09-2.23-1.58-4.84-2.12-6.72-2.32"/>
      <path class="cls-1" d="M137.36,118.43c-.38-1.07-1.07-2.33-2.39-3.5-2.11-1.88-4.93-2.74-7.02-3.17"/>
      <path class="cls-1" d="M120.8,138.71c-.38-1.07-1.07-2.33-2.39-3.5-2.11-1.88-4.93-2.74-7.02-3.17"/>
    </g>
    <g>
      <path class="cls-3" d="M91.62,106.1c3.67-5.11,7.61-8.9,11.66-11.93-15.76-14.47-37.63-18.69-39.46-16.22-.37.5.02,1.37-.64,3.92-.57,2.2-1.42,3.69-1.57,3.97-1.03,1.98-8.83,23.83,7.01,42.37,3.25,3.8,6.92,6.75,10.69,9.11,1.53-9.92,5.17-21.27,12.31-31.22Z"/>
      <path class="cls-1" d="M74.35,91.16c.94-.14,2.1-.48,3.29-1.26,1.92-1.25,3.15-3.11,3.89-4.51"/>
      <path class="cls-1" d="M76.52,114.25c.94-.14,2.09-.52,3.25-1.42,1.88-1.44,3.03-3.63,3.71-5.28"/>
    </g>
    <path class="cls-3" d="M36.07,105.15v-43.34h8.77v43.34h-8.77Z"/>
    <path class="cls-3" d="M123.73,67.37l-1.41-23.42c-.32-5.27-.51-10.32-.6-15.16h-.1c-.94,4.74-2.08,9.78-3.33,14.86l-5.86,23.72h-10.28l-5.86-23.72c-1.25-5.08-2.39-10.13-3.33-14.86h-.11c-.08,4.85-.28,9.9-.6,15.16l-1.41,23.42h-8.62l3.98-43.34h12.14l5.01,18.06c1.45,5.23,2.78,10.88,3.88,16.66h.12c1.1-5.78,2.43-11.43,3.88-16.66l5.01-18.06h12.14l3.98,43.34h-8.62Z"/>
    <path class="cls-3" d="M195.26,83.54c0,14.06-6.79,22.64-17.88,22.64s-17.88-8.58-17.88-22.64,6.79-22.64,17.88-22.64,17.88,8.58,17.88,22.64ZM167.57,83.54c0,9.13,3.71,14.73,9.82,14.73s9.82-5.6,9.82-14.73-3.71-14.73-9.82-14.73-9.82,5.6-9.82,14.73Z"/>
  </g>
</svg>